<?xml version="1.0" standalone="no"?>
<!DOCTYPE svg PUBLIC "-//W3C//DTD SVG 20010904//EN"
 "http://www.w3.org/TR/2001/REC-SVG-20010904/DTD/svg10.dtd">
<svg version="1.0" xmlns="http://www.w3.org/2000/svg"
 width="283.000000pt" height="64.000000pt" viewBox="0 0 283.000000 64.000000"
 preserveAspectRatio="xMidYMid meet">
<metadata>
Created by potrace 1.16, written by Peter Selinger 2001-2019
</metadata>
<g transform="translate(0.000000,64.000000) scale(0.049303,-0.031373)"
fill="#000000" stroke="none">
<path d="M1650 1754 c-87 -40 -195 -127 -352 -286 -82 -82 -148 -142 -148
-134 0 41 88 230 159 342 36 58 34 84 -9 84 -20 0 -54 -23 -131 -91 -57 -50
-121 -99 -141 -110 -53 -27 -119 -25 -146 4 -34 36 -28 73 19 124 22 24 39 49
36 56 -7 23 -65 19 -119 -8 -76 -38 -133 -88 -157 -138 -58 -120 8 -220 145
-220 52 -1 73 5 143 41 44 22 81 38 81 35 0 -17 -250 -400 -309 -473 -112
-139 -218 -193 -271 -140 -31 31 -26 76 11 111 17 16 35 29 40 29 14 0 39 57
39 89 0 20 -9 37 -31 55 -40 34 -72 41 -120 27 -80 -24 -129 -97 -129 -192 0
-52 5 -68 35 -112 72 -109 162 -151 308 -145 79 3 102 8 160 35 138 66 238
190 313 390 14 38 30 74 36 81 15 17 83 15 102 -4 25 -24 25 -25 -48 -219 -17
-43 -28 -94 -29 -132 -2 -56 1 -65 25 -90 24 -23 36 -27 80 -27 74 2 139 35
225 117 77 73 76 73 88 2 15 -86 80 -132 175 -122 71 8 126 37 189 99 42 42
54 48 90 48 61 0 97 22 178 108 62 66 75 75 90 66 25 -15 27 -50 7 -141 -9
-43 -20 -94 -24 -114 -10 -53 -14 -57 -93 -80 -283 -83 -411 -234 -295 -349
27 -27 36 -30 94 -30 111 0 212 66 406 261 75 77 141 139 146 139 16 0 135 81
193 131 31 27 60 49 64 49 4 0 5 -16 2 -36 -9 -51 1 -90 31 -119 21 -21 34
-25 83 -25 60 0 99 15 166 66 40 30 53 30 53 0 0 -13 9 -34 19 -47 27 -34 113
-33 162 1 69 48 201 165 237 209 58 72 100 116 107 110 5 -6 -106 -231 -127
-256 -14 -17 -6 -74 13 -86 25 -15 81 0 122 34 20 17 70 72 111 122 89 111
204 237 217 237 5 0 9 -7 9 -16 0 -16 -107 -216 -142 -267 -24 -34 -28 -94 -8
-108 21 -14 75 -4 116 21 19 12 75 72 125 133 96 119 206 237 220 237 17 0 9
-29 -26 -94 -114 -216 -112 -296 9 -296 67 0 91 15 260 164 34 30 51 34 41 9
-16 -41 -16 -81 -1 -111 24 -47 53 -62 117 -62 52 0 64 5 131 49 l73 50 3 -27
c2 -15 12 -38 22 -52 16 -21 27 -25 73 -25 47 0 62 5 108 37 92 63 239 207
239 233 0 45 -29 38 -97 -25 -53 -48 -69 -58 -80 -48 -21 17 -12 43 80 225
l81 163 -22 44 c-24 51 -60 79 -94 74 -20 -3 -38 -23 -73 -83 -9 -15 -15 -16
-32 -6 -12 6 -52 11 -88 11 -101 0 -175 -39 -262 -138 -106 -120 -257 -268
-292 -286 -54 -28 -49 3 27 162 91 190 92 194 54 232 -17 16 -38 30 -47 30
-28 0 -108 -47 -185 -108 -41 -33 -77 -58 -79 -56 -2 2 2 24 9 49 9 32 10 52
3 68 -14 29 -56 51 -85 44 -30 -8 -156 -92 -205 -137 -86 -78 -79 -78 -75 4 4
69 2 75 -24 104 -28 30 -41 36 -76 33 -10 0 -61 -60 -116 -133 -121 -161 -171
-219 -235 -269 -95 -75 -91 -21 13 177 88 168 95 201 58 250 -59 76 -103 71
-148 -19 -10 -19 -18 -26 -29 -21 -31 14 -149 16 -188 4 -59 -20 -140 -78
-179 -128 -45 -59 -302 -328 -332 -348 -30 -20 -39 -11 -20 18 36 56 110 202
133 262 18 47 25 86 25 135 0 62 -3 72 -29 100 -50 54 -106 35 -137 -44 -15
-40 -15 -54 -4 -120 14 -81 10 -120 -19 -213 -23 -71 -87 -203 -104 -214 -32
-20 -34 1 -12 89 45 175 60 397 30 437 -19 25 -68 25 -96 0 -12 -10 -56 -64
-99 -119 -119 -154 -193 -230 -214 -222 -22 9 -19 30 18 132 31 85 33 143 6
195 -47 91 -152 92 -284 1 -51 -36 -179 -163 -249 -249 -55 -68 -89 -85 -115
-58 -15 15 -15 21 1 78 48 168 51 185 37 218 -22 54 -92 73 -162 45 -30 -12
-20 12 28 67 100 114 179 157 266 144 123 -19 137 -19 173 4 80 49 112 152 62
198 -34 32 -132 30 -207 -4z m368 -530 c2 -17 -8 -56 -22 -88 -21 -48 -29 -56
-52 -56 -48 0 -64 -25 -64 -98 0 -54 -4 -70 -22 -89 -44 -47 -97 -16 -82 50
14 68 95 216 152 279 27 29 42 38 61 36 21 -2 27 -9 29 -34z m1242 -25 c0 -73
-152 -279 -205 -279 -47 0 -36 49 33 153 94 141 172 199 172 126z m1795 12
c18 -56 -148 -291 -205 -291 -49 0 -37 51 34 157 89 133 155 184 171 134z
m-2835 -564 c-1 -27 -68 -141 -108 -181 -123 -125 -251 -43 -134 86 40 44 90
73 172 99 56 17 70 17 70 -4z"/>
</g>
</svg>
